<?xml version="1.0" encoding="UTF-8"?>
<svg id="Capa_1" xmlns="http://www.w3.org/2000/svg" version="1.1" viewBox="0 0 1920 606.99">
  <!-- Generator: Adobe Illustrator 30.2.1, SVG Export Plug-In . SVG Version: 2.1.1 Build 1)  -->
  <defs>
    <style>
      .st0 {
        fill: #fff;
      }
    </style>
  </defs>
  <path class="st0" d="M256.87,40.36c-12.54,31.15-37.54,55.64-68.94,67.54.11-32.05,35.06-66.68,68.94-67.54ZM186.86,510.58c-23.45-29.25-54.85-46.57-78.41-35.6,19.36,38.61,58.72,52.38,78.41,35.6ZM150.18,453.8c-16.46-32.27-43.67-55.28-68.94-49.26,11.29,41.09,46.46,61.84,68.94,49.26ZM126.3,392.06c-9.68-34.2-32.27-62.17-57.76-61.09,3.12,42.16,33.23,68.94,57.76,61.09ZM115.55,327.53c-2.8-35.28-19.14-67.11-44.85-71.09-5.49,42.05,19.36,74.32,44.42,71.09h.43ZM117.16,262.13c3.98-35.17-5.81-69.8-30.12-78.73-13.77,40.44,4.09,76.58,29.68,78.73h.43ZM131.36,197.6c10.76-33.88,8.39-70.23-13.66-83.89-21.83,38.07-11.4,77.22,13.23,84.32l.43-.43ZM157.92,137.16c17.64-31.51,23.34-68.3,4.52-86.04-29.36,33.56-27.32,74.43-4.52,86.04ZM173.3,145.98c23.02,12.05,52.59.86,72.6-21.51-18.61-17.42-54.64-9.68-72.6,21.73v-.22ZM147.81,203.63c24.95,7.31,51.63-9.14,66.15-34.31-21.83-13.66-55.07.11-66.15,34.31ZM134.37,264.29c25.81,2.26,48.72-18.93,57.86-45.93-24.09-9.14-53.67,10.86-57.86,45.93ZM133.08,326.13c25.71-2.8,44.2-28.07,47.86-56.14-25.6-3.76-50.66,20.97-47.86,56.14ZM143.83,387.33c24.74-7.85,37.97-36.35,36.03-64.53-26.14.86-45.82,30.33-36.03,64.53ZM166.42,445.73c22.69-12.58,29.79-43.02,22.48-70.99-25.49,5.92-39.15,38.93-22.91,70.99h.43ZM200.95,499.51c19.68-16.89,20-49.15,7.21-75.29-23.88,11.08-30.65,46.36-7.64,75.29h.43ZM254.72,557.48C117.46,454.84,84.4,262.79,179.44,120.16c-98.79,143.06-68.25,338.43,69.48,444.52,3.01,2.37,6.67,2.58,8.17,0,1.51-2.58,0-5.38-2.58-7.64l.22.43ZM1663.13,40.36c12.54,31.15,37.54,55.64,68.94,67.54-.11-32.05-35.06-66.68-68.94-67.54ZM1811.55,474.98c-23.55-10.76-54.96,6.78-78.19,35.6,19.47,16.78,58.83,3.01,78.19-35.6ZM1838.76,404.54c-25.28-6.02-52.49,17.21-68.94,49.26,22.48,12.58,57.65-8.17,68.94-49.26ZM1851.45,330.75c-25.92-1.08-48.08,26.89-57.76,61.09,24.52,8.07,54.64-18.71,57.76-61.09ZM1849.73,256.22c-25.71,3.98-42.05,35.82-44.85,71.09,25.06,3.44,49.9-28.82,44.85-70.88v-.22ZM1833.38,183.4c-24.31,8.93-34.09,43.56-30.12,78.73,25.6-2.15,43.45-38.29,30.12-78.73ZM1802.73,114.14c-21.51,13.66-24.52,50.01-13.66,83.89,24.63-7.1,35.06-46.25,13.66-83.89ZM1757.56,51.11c-18.82,17.85-13.12,54.64,4.52,86.04,22.8-11.62,24.84-52.49-4.52-86.04ZM1674.1,124.79c20.01,22.26,49.58,33.45,72.6,21.51-17.96-31.51-53.99-39.26-72.6-21.51ZM1706.36,169.32c14.52,25.17,41.19,41.62,66.15,34.31-11.4-34.2-44.63-47.97-66.47-34.2l.32-.11ZM1727.87,218.36c9.14,27,32.27,48.18,57.86,45.93-4.3-35.06-33.88-55.07-57.97-45.93h.11ZM1739.38,269.99c3.66,28.07,22.16,53.78,47.86,56.14,2.47-35.17-22.59-59.91-47.97-56.14h.11ZM1740.67,322.69c-1.94,28.29,10.76,56.79,36.03,64.53,9.25-34.09-10.43-63.56-36.14-64.53h.11ZM1731.64,374.74c-7.31,27.53,0,58.4,22.48,70.99,16.13-32.05,2.47-65.07-22.59-70.99h.11ZM1712.39,424.54c-12.8,25.81-12.48,58.08,7.21,75.29,22.91-29.25,16.13-64.53-7.31-75.29h.11ZM1665.81,557.58c-2.9,2.26-4.09,5.7-2.58,7.64s5.16,1.83,8.17,0c138.05-106.14,168.62-301.89,69.48-445.06,95.03,142.63,61.97,334.67-75.29,437.31l.22.11Z"/>
  <g>
    <g id="NLa2dM">
      <g>
        <path d="M567.37,445.33l1.2-75.97c-20.29,47.85-41.16,31.49-92.65,32.53l.43-82.2,71.72-.09c7.5,0,24.33,6.33,27.21,12.49l12.76,27.31c.93-19.83.28-33.37-1.49-52.52l-174.39,2.38c7.54,2.69,30.34,10.24,30.34,19.48l.1,169.3c0,9.1-22.79,15.92-34.92,21.31l179.94.42,17.22-51.12c-44.82,51.17-60.53,41.53-128.59,36.84l-.22-90.55c56.66,2.48,69.67-13.69,91.33,30.38ZM720.77,519.69c-17.85-8.56-30.36-15.93-30.37-25.87l-.17-154.73c0-6.27,5.76-20.36,11.35-22.41l19.92-7.29c-32.44-2.11-63.21-2.1-93.61.54,7,2.28,29.14,11.44,29.16,20.98l.32,171.1-34.34,17.72,97.74-.05ZM928.63,486.59l-92.38-84.97,67.18-61.35c13.59-12.41,30.71-20.54,50.18-31.89l-80.42.02,17.18,12.56c12.49,9.13-72.46,76.53-85.44,86.08l-1.12-82.85,33.62-16.39-97.52,1c7.78,4.25,29.68,11.25,29.73,20.33l.78,156.43c.04,7.83-4.16,21.38-9.22,23.7l-22.56,10.36,99.64-.25c-16.53-6.73-35.51-13.65-35.37-24.93l.98-79.67,83.21,75.11c3.67,3.31,8.87,16.09,4.82,18.54l-18.43,11.17,116.01-.39c-22.98-10.43-44.64-17.69-60.88-32.63ZM1190.79,396.26c-1.18,35.04-13.35,65.02-46.93,76.27-3.61,13.91-5.87,33.23-6.26,47.1l101.13-.09-.69-49.47c-9.72,8.27-23.02,18.4-31.14,17.79l-49.63-3.72c40.53-14.05,70.15-37.47,74.6-78.14,4.13-37.8-16.26-74.91-53.88-90.34-40.65-16.67-88.77-16.79-127.87,3.29-37.12,19.06-54.32,57.8-45.83,96.57,7.86,35.91,36.65,55.63,73.51,68.85l-53.65,2.9c-6.29.34-18.96-10.43-26.69-16.92l-1.52,49.48,102.28-.68-6.78-46.32c-37.43-11.24-47.26-45.99-47.54-79.75-.39-45.9,27.29-79.4,73.65-78.7,45.95.69,74.93,31.8,73.24,81.87ZM1463.74,526.35l3-197.51c.13-8.25,20.47-15.94,28.56-19.75l-79.69-.99c13.17,5.39,34.4,11.7,34.34,21.17l-.8,135.3-140.42-156.9-58.46,1.88c13.67,6.1,31.53,15.11,41.5,26.05l-.6,163.11c-.03,8.62-24.41,16.16-33.27,20.67l81.33.14-25.12-11.47c-4.26-1.94-7.6-16.84-7.53-21.67l2-130.91,155.16,170.87Z"/>
        <g>
          <path class="st0" d="M1190.79,396.26c1.69-50.07-27.29-81.18-73.24-81.87-46.37-.7-74.04,32.8-73.65,78.7.28,33.76,10.11,68.51,47.54,79.75l6.78,46.32-102.28.68,1.52-49.48c7.73,6.48,20.4,17.26,26.69,16.92l53.65-2.9c-36.86-13.22-65.65-32.94-73.51-68.85-8.49-38.77,8.7-77.51,45.83-96.57,39.1-20.08,87.23-19.96,127.87-3.29,37.62,15.43,58.01,52.53,53.88,90.34-4.44,40.68-34.07,64.09-74.6,78.14l49.63,3.72c8.12.61,21.43-9.52,31.14-17.79l.69,49.47-101.13.09c.39-13.87,2.66-33.19,6.26-47.1,33.58-11.25,45.74-41.22,46.93-76.27Z"/>
          <path class="st0" d="M928.63,486.59c16.25,14.94,37.9,22.21,60.88,32.63l-116.01.39,18.43-11.17c4.05-2.45-1.15-15.23-4.82-18.54l-83.21-75.11-.98,79.67c-.14,11.28,18.84,18.2,35.37,24.93l-99.64.25,22.56-10.36c5.07-2.33,9.26-15.88,9.22-23.7l-.78-156.43c-.05-9.09-21.95-16.08-29.73-20.33l97.52-1-33.62,16.39,1.12,82.85c12.98-9.56,97.92-76.96,85.44-86.08l-17.18-12.56,80.42-.02c-19.47,11.35-36.6,19.49-50.18,31.89l-67.18,61.35,92.38,84.97Z"/>
          <path class="st0" d="M1463.74,526.35l-155.16-170.87-2,130.91c-.07,4.84,3.27,19.73,7.53,21.67l25.12,11.47-81.33-.14c8.86-4.51,33.24-12.06,33.27-20.67l.6-163.11c-9.98-10.94-27.83-19.95-41.5-26.05l58.46-1.88,140.42,156.9.8-135.3c.06-9.47-21.17-15.78-34.34-21.17l79.69.99c-8.09,3.81-28.43,11.49-28.56,19.75l-3,197.51Z"/>
          <path class="st0" d="M567.37,445.33c-21.66-44.07-34.67-27.9-91.33-30.38l.22,90.55c68.06,4.68,83.77,14.32,128.59-36.84l-17.22,51.12-179.94-.42c12.14-5.38,34.93-12.21,34.92-21.31l-.1-169.3c0-9.23-22.8-16.78-30.34-19.48l174.39-2.38c1.76,19.15,2.42,32.68,1.49,52.52l-12.76-27.31c-2.88-6.16-19.71-12.5-27.21-12.49l-71.72.09-.43,82.2c51.49-1.04,72.36,15.32,92.65-32.53l-1.2,75.97Z"/>
          <path class="st0" d="M720.77,519.69l-97.74.05,34.34-17.72-.32-171.1c-.02-9.54-22.16-18.71-29.16-20.98,30.39-2.64,61.16-2.65,93.61-.54l-19.92,7.29c-5.6,2.05-11.36,16.14-11.35,22.41l.17,154.73c.01,9.93,12.53,17.3,30.37,25.87Z"/>
        </g>
      </g>
    </g>
    <g>
      <path class="st0" d="M512.17,105.75c0,7.98-1.18,15.01-3.54,21.12-2.36,6.1-5.49,11.19-9.4,15.26-3.91,4.07-8.42,7.16-13.55,9.28-5.13,2.12-10.46,3.17-15.99,3.17h-25.39v77.14h-16.84V58.88h40.77c5.04,0,10.17.73,15.38,2.2,5.21,1.46,9.92,4.03,14.16,7.69,4.23,3.66,7.69,8.51,10.38,14.53,2.68,6.02,4.03,13.51,4.03,22.46ZM495.33,105.88c0-5.68-.73-10.58-2.2-14.72-1.47-4.13-3.5-7.5-6.1-10.09-2.61-2.59-5.58-4.5-8.91-5.72-3.34-1.21-6.96-1.82-10.86-1.82h-22.95v66.4h23.19c7.65,0,14.2-2.8,19.65-8.39,5.45-5.59,8.18-14.15,8.18-25.66Z"/>
      <path class="st0" d="M658.89,231.72l-31.25-80.07h-22.21v80.07h-16.84V58.88h41.5c5.69,0,11.19.77,16.48,2.32,5.29,1.55,10.01,4.11,14.16,7.69,4.15,3.58,7.48,8.3,10.01,14.16,2.52,5.86,3.78,13.02,3.78,21.48,0,7.32-.94,13.63-2.81,18.92-1.87,5.29-4.31,9.73-7.32,13.31-3.01,3.58-6.35,6.35-10.01,8.3s-7.29,3.17-10.86,3.66l33.69,83h-18.31ZM657.91,105.38c0-6.16-.85-11.31-2.56-15.44-1.71-4.13-3.99-7.42-6.83-9.85-2.85-2.43-6.1-4.13-9.76-5.11s-7.45-1.46-11.35-1.46h-21.97v64.69h22.7c9.28,0,16.56-2.88,21.85-8.63,5.29-5.76,7.93-13.82,7.93-24.2Z"/>
      <path class="st0" d="M753.61,231.72V58.88h69.57v15.14h-52.97v60.54h49.56v14.65h-49.56v67.13h55.42v15.38h-72.02Z"/>
      <path class="st0" d="M1022.39,231.72V81.58h-.73l-42.37,150.13h-15.83l-42.13-150.13h-.73v150.13h-16.11V58.88h25.39l41.26,145.98h.98l40.77-145.98h26.37v172.84h-16.84Z"/>
      <path class="st0" d="M1127.6,231.72V58.88h17.09v172.84h-17.09Z"/>
      <path class="st0" d="M1339.98,145.05c0,13.51-1.31,25.84-3.91,36.98-2.61,11.15-6.35,20.71-11.23,28.68-4.88,7.98-10.83,14.16-17.82,18.55-7,4.39-14.98,6.59-23.92,6.59s-16.97-2.2-24.05-6.59c-7.08-4.39-13.1-10.58-18.06-18.55-4.97-7.97-8.75-17.53-11.35-28.68-2.61-11.15-3.91-23.47-3.91-36.98s1.26-25.59,3.78-36.74c2.52-11.15,6.22-20.67,11.11-28.56,4.88-7.89,10.86-14.04,17.94-18.43,7.08-4.39,15.26-6.59,24.53-6.59s16.92,2.2,23.92,6.59c6.99,4.39,12.94,10.54,17.82,18.43,4.88,7.9,8.62,17.42,11.23,28.56,2.6,11.15,3.91,23.4,3.91,36.74ZM1322.16,145.05c0-10.41-.82-20.18-2.44-29.29-1.63-9.11-4.11-17-7.45-23.68-3.34-6.67-7.45-11.96-12.33-15.87s-10.5-5.86-16.84-5.86c-6.67,0-12.49,1.95-17.45,5.86-4.97,3.91-9.07,9.2-12.33,15.87-3.26,6.67-5.7,14.57-7.32,23.68-1.63,9.12-2.44,18.88-2.44,29.29s.81,20.18,2.44,29.29c1.62,9.12,4.07,17.09,7.32,23.92,3.25,6.84,7.36,12.21,12.33,16.11,4.96,3.91,10.78,5.86,17.45,5.86s12.21-1.95,17.09-5.86c4.88-3.91,8.95-9.28,12.21-16.11,3.25-6.84,5.7-14.81,7.32-23.92,1.62-9.11,2.44-18.88,2.44-29.29Z"/>
      <path class="st0" d="M1495.97,187.53c0,7.65-1.14,14.45-3.42,20.38-2.28,5.94-5.41,10.99-9.4,15.14-3.99,4.15-8.67,7.32-14.04,9.52-5.37,2.2-11.07,3.3-17.09,3.3-8.79,0-16.89-1.87-24.29-5.61-7.41-3.74-13.39-8.7-17.94-14.89l10.5-11.96c3.74,5.37,8.46,9.52,14.16,12.45,5.69,2.93,11.47,4.39,17.33,4.39,7.81,0,14.36-2.77,19.65-8.3,5.29-5.53,7.93-13.43,7.93-23.68,0-4.88-.82-9.19-2.44-12.94-1.63-3.74-3.83-7.08-6.59-10.01-2.77-2.93-5.9-5.53-9.4-7.81-3.5-2.28-7.2-4.39-11.11-6.35-4.72-2.28-9.2-4.84-13.43-7.69-4.23-2.85-7.93-6.14-11.11-9.89-3.17-3.74-5.74-8.18-7.69-13.31-1.95-5.13-2.93-11.11-2.93-17.94,0-7.97,1.22-14.93,3.66-20.87,2.44-5.94,5.74-10.9,9.89-14.89,4.15-3.99,8.83-6.96,14.04-8.91,5.21-1.95,10.66-2.93,16.36-2.93,7.81,0,14.85,1.34,21.12,4.03,6.26,2.68,11.51,6.88,15.75,12.57l-10.5,11.96c-3.26-4.72-7.08-8.09-11.47-10.13-4.39-2.03-9.2-3.05-14.4-3.05-3.42,0-6.8.61-10.13,1.83-3.34,1.22-6.31,3.14-8.91,5.74s-4.72,5.94-6.35,10.01c-1.63,4.07-2.44,8.87-2.44,14.4,0,4.88.73,9.12,2.2,12.69,1.46,3.58,3.46,6.76,5.98,9.52,2.52,2.77,5.45,5.21,8.79,7.32,3.33,2.12,6.79,4.07,10.38,5.86,4.55,2.28,9.07,4.88,13.55,7.81,4.47,2.93,8.5,6.35,12.08,10.25,3.58,3.91,6.43,8.46,8.54,13.67,2.11,5.21,3.17,11.31,3.17,18.31Z"/>
    </g>
  </g>
</svg>