<?xml version="1.0" encoding="UTF-8"?>
<svg id="Capa_1" xmlns="http://www.w3.org/2000/svg" version="1.1" viewBox="275 462 545 122">
  <!-- Generator: Adobe Illustrator 30.2.1, SVG Export Plug-In . SVG Version: 2.1.1 Build 1)  -->
  <g>
    <path d="M292.24,487.09h40.34c5.64,0,10.48.7,14.53,2.08,4.05,1.39,7.19,3.64,9.44,6.74,2.25,3.11,3.37,7.23,3.37,12.38,0,6.79-1.8,12.02-5.4,15.69-3.6,3.68-8.42,5.64-14.47,5.89v-.37c4.58.08,8.56.82,11.95,2.21,3.39,1.39,6.05,3.54,7.97,6.44,1.92,2.9,2.88,6.68,2.88,11.34,0,5.15-1.15,9.46-3.43,12.94-2.29,3.48-5.62,6.09-9.99,7.85-4.37,1.76-9.83,2.64-16.37,2.64h-40.83v-85.83ZM303.15,561.27h27.34c5.8,0,10.03-1,12.69-3,2.66-2,3.98-5.41,3.98-10.24,0-4.41-1.37-7.6-4.11-9.56-2.74-1.96-6.89-2.94-12.44-2.94h-26.61v-11.4h25.38c4.98,0,8.75-1.1,11.28-3.31,2.53-2.21,3.8-5.68,3.8-10.42,0-4.33-1.19-7.38-3.56-9.13-2.37-1.76-6.17-2.64-11.4-2.64h-26.36l4.05-5.52v73.81l-4.05-5.64Z"/>
    <path d="M379.9,571.94c-3.19-1.39-5.58-3.43-7.17-6.13-1.59-2.7-2.39-5.89-2.39-9.56,0-3.92,1.04-7.25,3.13-9.99,2.08-2.74,5.5-5.33,10.24-7.79,4.74-2.45,11.44-5.11,20.11-7.97l19.62-6.25.12,9.07-17.53,5.64c-5.8,1.88-10.2,3.6-13.18,5.15-2.98,1.55-5.07,3.17-6.25,4.84-1.19,1.68-1.78,3.7-1.78,6.07,0,3.03,1.02,5.29,3.07,6.8,2.04,1.51,5.11,2.27,9.2,2.27,4.82,0,9.07-1.18,12.75-3.56,3.68-2.37,6.5-5.5,8.46-9.38,1.96-3.88,2.94-7.99,2.94-12.32v-13.24c0-3.84-.57-6.89-1.72-9.13-1.15-2.25-2.9-3.88-5.27-4.9-2.37-1.02-5.56-1.53-9.56-1.53-6.21,0-10.81,1.55-13.79,4.66-2.98,3.11-4.84,8.38-5.58,15.82h-13.49c.65-7.11,2.31-12.89,4.97-17.35,2.66-4.45,6.31-7.74,10.97-9.87,4.66-2.12,10.58-3.19,17.78-3.19s12.77.94,17.23,2.82c4.45,1.88,7.7,4.66,9.75,8.34,2.04,3.68,3.06,8.21,3.06,13.61v26.48l.86,21.58h-13.85v-30.78l.12-.37c-.65,6.3-2.1,11.85-4.35,16.68-2.25,4.82-5.58,8.62-9.99,11.4-4.41,2.78-9.93,4.17-16.55,4.17-4.74,0-8.71-.7-11.89-2.08ZM411.78,475.57h16.18l-19.37,18.76h-11.28l14.47-18.76Z"/>
    <path d="M445.13,501.56h12.51l.86,29.55h1.1v41.81h-14.47v-71.36ZM460.58,518.73c1.8-5.89,4.31-10.22,7.54-13,3.23-2.78,7.01-4.17,11.34-4.17h3.43v12.38h-5.52c-3.68,0-6.87.86-9.56,2.57s-4.74,4.58-6.13,8.58c-1.39,4.01-2.08,9.44-2.08,16.31h-1.72c0-9.24.9-16.8,2.7-22.68Z"/>
    <path d="M488.9,479.74h14.47v93.18h-14.47v-93.18ZM514.1,570.28c-4.21-2.74-7.4-6.76-9.56-12.08-2.17-5.31-3.25-12.06-3.25-20.23s1.06-15.51,3.19-21.03c2.12-5.52,5.33-9.69,9.62-12.51,4.29-2.82,9.54-4.23,15.76-4.23s11.12,1.29,15.2,3.86c4.09,2.57,7.25,6.6,9.5,12.08,2.25,5.48,3.37,12.34,3.37,20.6s-1.1,15.43-3.31,21.03c-2.21,5.6-5.42,9.77-9.62,12.51-4.21,2.74-9.38,4.11-15.51,4.11s-11.18-1.37-15.39-4.11ZM538.37,557.72c3.07-4.25,4.6-11.08,4.6-20.48s-1.51-15.96-4.54-20.17c-3.03-4.21-7.89-6.31-14.59-6.31-4.5,0-8.3.92-11.4,2.76-3.11,1.84-5.44,4.72-6.99,8.64-1.55,3.92-2.33,8.95-2.33,15.08s.8,11.28,2.39,15.2c1.59,3.92,3.94,6.85,7.05,8.77,3.11,1.92,6.87,2.88,11.28,2.88,6.62,0,11.46-2.12,14.53-6.38Z"/>
    <path d="M573.87,571.94c-3.19-1.39-5.58-3.43-7.17-6.13-1.59-2.7-2.39-5.89-2.39-9.56,0-3.92,1.04-7.25,3.13-9.99,2.08-2.74,5.5-5.33,10.24-7.79,4.74-2.45,11.44-5.11,20.11-7.97l19.62-6.25.12,9.07-17.53,5.64c-5.8,1.88-10.2,3.6-13.18,5.15-2.98,1.55-5.07,3.17-6.25,4.84-1.19,1.68-1.78,3.7-1.78,6.07,0,3.03,1.02,5.29,3.07,6.8,2.04,1.51,5.11,2.27,9.2,2.27,4.82,0,9.07-1.18,12.75-3.56,3.68-2.37,6.5-5.5,8.46-9.38,1.96-3.88,2.94-7.99,2.94-12.32v-13.24c0-3.84-.57-6.89-1.72-9.13-1.15-2.25-2.9-3.88-5.27-4.9-2.37-1.02-5.56-1.53-9.56-1.53-6.21,0-10.81,1.55-13.79,4.66-2.98,3.11-4.84,8.38-5.58,15.82h-13.49c.65-7.11,2.31-12.89,4.97-17.35,2.66-4.45,6.31-7.74,10.97-9.87,4.66-2.12,10.58-3.19,17.78-3.19s12.77.94,17.23,2.82c4.45,1.88,7.7,4.66,9.75,8.34,2.04,3.68,3.07,8.21,3.07,13.61v26.48l.86,21.58h-13.86v-30.78l.12-.37c-.66,6.3-2.11,11.85-4.35,16.68-2.25,4.82-5.58,8.62-9.99,11.4-4.41,2.78-9.93,4.17-16.55,4.17-4.74,0-8.71-.7-11.89-2.08Z"/>
    <path d="M639.96,501.56h12.51l.86,29.55h1.1v41.81h-14.47v-71.36ZM655.41,518.73c1.8-5.89,4.31-10.22,7.54-13,3.23-2.78,7.01-4.17,11.34-4.17h3.43v12.38h-5.52c-3.68,0-6.87.86-9.56,2.57s-4.74,4.58-6.13,8.58c-1.39,4.01-2.08,9.44-2.08,16.31h-1.72c0-9.24.9-16.8,2.7-22.68Z"/>
    <path d="M687.65,571.94c-3.19-1.39-5.58-3.43-7.17-6.13-1.59-2.7-2.39-5.89-2.39-9.56,0-3.92,1.04-7.25,3.13-9.99,2.08-2.74,5.5-5.33,10.24-7.79,4.74-2.45,11.44-5.11,20.11-7.97l19.62-6.25.12,9.07-17.53,5.64c-5.8,1.88-10.2,3.6-13.18,5.15-2.98,1.55-5.07,3.17-6.25,4.84-1.19,1.68-1.78,3.7-1.78,6.07,0,3.03,1.02,5.29,3.07,6.8,2.04,1.51,5.11,2.27,9.2,2.27,4.82,0,9.07-1.18,12.75-3.56,3.68-2.37,6.5-5.5,8.46-9.38,1.96-3.88,2.94-7.99,2.94-12.32v-13.24c0-3.84-.57-6.89-1.72-9.13-1.15-2.25-2.9-3.88-5.27-4.9-2.37-1.02-5.56-1.53-9.56-1.53-6.21,0-10.81,1.55-13.79,4.66-2.98,3.11-4.84,8.38-5.58,15.82h-13.49c.65-7.11,2.31-12.89,4.97-17.35,2.66-4.45,6.31-7.74,10.97-9.87,4.66-2.12,10.58-3.19,17.78-3.19s12.77.94,17.23,2.82c4.45,1.88,7.7,4.66,9.75,8.34,2.04,3.68,3.07,8.21,3.07,13.61v26.48l.86,21.58h-13.86v-30.78l.12-.37c-.66,6.3-2.11,11.85-4.35,16.68-2.25,4.82-5.58,8.62-9.99,11.4-4.41,2.78-9.93,4.17-16.55,4.17-4.74,0-8.71-.7-11.89-2.08Z"/>
  </g>
  <path d="M752.42,524.86c-3.48-2.79-5.22-7.04-5.22-12.75s1.74-9.9,5.22-12.69c3.48-2.79,9-4.19,16.56-4.19s13.13,1.4,16.59,4.19c3.46,2.79,5.19,7.04,5.19,12.75s-1.73,9.9-5.19,12.69c-3.46,2.79-8.99,4.19-16.59,4.19s-13.08-1.4-16.56-4.19ZM779.96,524.93c2.73-1.03,4.69-2.58,5.89-4.64s1.8-4.77,1.8-8.12-.6-5.99-1.8-8.05c-1.2-2.06-3.17-3.62-5.89-4.67-2.73-1.05-6.39-1.58-10.98-1.58s-8.26.52-10.98,1.55-4.69,2.59-5.89,4.67c-1.2,2.08-1.8,4.78-1.8,8.08s.6,6,1.8,8.08c1.2,2.08,3.17,3.64,5.89,4.67s6.39,1.55,10.98,1.55,8.26-.52,10.98-1.55ZM757.31,501.86h14.82c2.19,0,3.99.18,5.41.55,1.42.37,2.5.97,3.25,1.8.75.84,1.13,1.92,1.13,3.25,0,1.89-.78,3.3-2.35,4.22-1.57.92-4,1.38-7.31,1.38v-.06c1.8,0,3.23.12,4.28.35,1.05.24,1.92.67,2.61,1.29.69.62,1.25,1.56,1.67,2.8l1.67,4.51h-5.28l-1.42-4.77c-.39-1.16-.89-1.94-1.51-2.35-.62-.41-1.6-.61-2.93-.61h-9.21v7.73h-4.83v-20.1ZM775.7,510.37c.84-.47,1.26-1.25,1.26-2.32,0-.69-.17-1.23-.52-1.64-.34-.41-.9-.71-1.67-.9-.77-.19-1.76-.29-2.96-.29h-9.66v5.86h9.28c2.02,0,3.45-.24,4.28-.71Z"/>
</svg>